<?xml version="1.0" standalone="no"?><!DOCTYPE svg PUBLIC "-//W3C//DTD SVG 1.1//EN" "http://www.w3.org/Graphics/SVG/1.1/DTD/svg11.dtd"><svg t="1587909570540" class="icon" viewBox="0 0 1253 1024" version="1.1" xmlns="http://www.w3.org/2000/svg" p-id="4334" xmlns:xlink="http://www.w3.org/1999/xlink" width="78.3125" height="64"><defs><style type="text/css"></style></defs><path d="M848.486992 309.933685a384.335181 384.335181 0 0 1 42.659412 2.6118C852.839993 133.375956 661.656181 0.17412 443.657881 0.17412 199.715695 0.17412 0 166.807006 0 378.536984c0 122.232273 66.339738 222.525421 177.428329 300.357082l-44.400613 133.724196 155.140963-78.005781a749.639041 749.639041 0 0 0 155.489202 22.461486c13.929604 0 27.685088-0.69648 41.440572-1.915321a329.330658 329.330658 0 0 1-13.755484-93.154225c0-194.317973 166.458766-352.070736 377.144023-352.070736z m-238.544465-120.665193a55.718415 55.718415 0 0 1 0 111.26271c-33.256929 0-66.513858-22.287366-66.513858-55.718415s33.256929-55.544295 66.513858-55.544295z m-310.456045 111.26271c-33.256929 0-66.862098-22.287366-66.862098-55.718415s33.605169-55.544295 66.862098-55.544295a55.718415 55.718415 0 0 1 0 111.26271z m954.003741 356.075498c0-177.776569-177.602449-322.818568-376.969903-322.818569-211.033498 0-377.318143 145.042-377.318143 322.818569 0 178.298929 166.284645 322.818568 377.318143 322.818568a556.609556 556.609556 0 0 0 133.201836-22.287366l121.709913 66.862098-33.431049-111.26271c89.149464-66.862098 155.489203-155.663323 155.489203-256.13059z m-499.202177-55.544296a44.487672 44.487672 0 0 1 0-88.975344c33.431049 0 55.544295 22.287366 55.544295 44.400612 0 22.461486-22.113246 44.574732-55.544295 44.574732z m243.942187 0a44.487672 44.487672 0 0 1 0-88.975344c33.256929 0 55.544295 22.287366 55.544295 44.400612 0 22.461486-22.287366 44.574732-55.544295 44.574732z" fill="#42BF39" p-id="4335"></path></svg>